<svg width="230" height="107" viewBox="0 0 230 107" fill="none" xmlns="http://www.w3.org/2000/svg">
<g clip-path="url(#clip0_3_2)">
<path d="M230 102H0V107H230V102Z" fill="#044E80"/>
<path d="M35.7949 18C27.7126 18 21.2487 24.433 20.6953 32.4551C19.0666 32.8539 17.5258 33.4874 16.1484 34.3652C12 36.7603 9.08715 41.9883 8.98828 47.4844C8.99149 56.0077 15.8494 62.9707 24.293 62.9707H34.5V71.9824C34.5 73.6702 33.188 74.9824 31.5 74.9824H29.7832C29.1093 72.4073 26.7764 70.4824 24 70.4824C20.7041 70.4824 18 73.1863 18 76.4824C18 79.7782 20.7041 82.4824 24 82.4824C26.7745 82.4824 29.1074 80.5547 29.7832 77.9824H31.5C34.7981 77.9824 37.5 75.2803 37.5 71.9824V44.9824H34.5V59.9707H24.293C17.4906 59.9707 11.9883 54.4049 11.9883 47.4785C11.9874 42.9764 14.3508 38.9918 17.9531 36.791C18.154 36.6679 18.3662 36.5627 18.5742 36.4512C18.9623 36.2441 19.357 36.0541 19.7695 35.8887C19.9778 35.8047 20.1887 35.7268 20.4023 35.6543C20.9029 35.4853 21.42 35.3486 21.9492 35.2441C22.7104 35.0947 23.4866 34.9922 24.293 34.9922C27.8543 34.9922 31.0484 36.5141 33.2988 38.9648C34.6449 40.5437 36.9657 38.4137 35.5078 36.9375C32.7175 33.8988 28.7148 31.9922 24.293 31.9922C24.0705 31.9922 23.857 32.0295 23.6367 32.0391C24.3502 25.8125 29.4817 21 35.7949 21C41.6984 21.003 46.7649 25.2386 47.877 31.1426C48.0701 32.1779 49.2421 32.6971 50.1387 32.1445C52.0609 30.9583 54.2595 30.3281 56.502 30.3281C63.3043 30.3281 68.8066 35.8881 68.8066 42.8145C68.8067 43.6428 69.4782 44.3144 70.3066 44.3145C74.5677 44.3145 78.0117 47.7914 78.0117 52.1426C78.0117 56.4938 74.5677 59.9707 70.3066 59.9707H55.5V44.9824H52.5V71.9824C52.5 75.2803 55.2019 77.9824 58.5 77.9824H60.2168C60.8926 80.5547 63.2255 82.4824 66 82.4824C69.2959 82.4824 72 79.7782 72 76.4824C72 73.1863 69.2959 70.4824 66 70.4824C63.2236 70.4824 60.8907 72.4073 60.2168 74.9824H58.5C56.812 74.9824 55.5 73.6702 55.5 71.9824V62.9707H70.3066C76.2108 62.9707 81.0117 58.0934 81.0117 52.1426C81.0117 46.6394 76.8472 42.2308 71.5605 41.5723C70.9026 33.6523 64.5117 27.3281 56.502 27.3281C54.2993 27.3281 52.2535 28.1807 50.2676 29.1035C48.3416 22.6457 42.5961 18.0036 35.7949 18V18ZM40.5 38.9824V65.9824H43.5V38.9824H40.5ZM46.5 38.9824V65.9824H49.5V38.9824H46.5ZM40.5 68.9824V71.9824H43.5V68.9824H40.5ZM46.5 68.9824V71.9824H49.5V68.9824H46.5ZM24 73.4824C25.6746 73.4824 27 74.8078 27 76.4824C27 78.157 25.6746 79.4824 24 79.4824C22.3254 79.4824 21 78.157 21 76.4824C21 74.8078 22.3254 73.4824 24 73.4824ZM66 73.4824C67.6746 73.4824 69 74.8078 69 76.4824C69 78.157 67.6746 79.4824 66 79.4824C64.3254 79.4824 63 78.157 63 76.4824C63 74.8078 64.3254 73.4824 66 73.4824ZM0 74.9824V77.9824H3V74.9824H0ZM6 74.9824V77.9824H9V74.9824H6ZM12 74.9824V77.9824H15V74.9824H12ZM40.5 74.9824V77.9824H43.5V74.9824H40.5ZM46.5 74.9824V77.9824H49.5V74.9824H46.5ZM75 74.9824V77.9824H78V74.9824H75ZM81 74.9824V77.9824H84V74.9824H81ZM87 74.9824V77.9824H90V74.9824H87ZM40.5 80.9824V83.9824H43.5V80.9824H40.5ZM46.5 80.9824V83.9824H49.5V80.9824H46.5ZM40.5 86.9824V89.9824H43.5V86.9824H40.5ZM46.5 86.9824V89.9824H49.5V86.9824H46.5Z" fill="#066DB3"/>
<path d="M121.368 42.6856H126.646V47.4054C126.646 53.0894 123.804 56.3375 118.323 56.3375C112.842 56.3375 110 53.0894 110 47.4054V28.9321C110 23.248 112.842 20 118.323 20C123.804 20 126.646 23.248 126.646 28.9321V32.3832H121.368V28.5769C121.368 26.0393 120.252 25.0751 118.475 25.0751C116.699 25.0751 115.583 26.0393 115.583 28.5769V47.7606C115.583 50.2982 116.699 51.2117 118.475 51.2117C120.252 51.2117 121.368 50.2982 121.368 47.7606V42.6856ZM150.835 55.9315H145.151C144.847 55.018 144.644 54.4597 144.644 51.5669V45.9844C144.644 42.6856 143.527 41.4675 140.99 41.4675H139.061V55.9315H133.479V20.406H141.903C147.689 20.406 150.176 23.0958 150.176 28.5769V31.3682C150.176 35.0222 149.008 37.3567 146.521 38.524V38.6255C149.313 39.7928 150.226 42.4318 150.226 46.1366V51.6177C150.226 53.3432 150.277 54.612 150.835 55.9315ZM141.751 25.4811H139.061V36.3925H141.243C143.324 36.3925 144.593 35.479 144.593 32.6369V29.1351C144.593 26.5976 143.73 25.4811 141.751 25.4811ZM162.438 28.5769V47.7606C162.438 50.2982 163.555 51.2624 165.331 51.2624C167.107 51.2624 168.224 50.2982 168.224 47.7606V28.5769C168.224 26.0393 167.107 25.0751 165.331 25.0751C163.555 25.0751 162.438 26.0393 162.438 28.5769ZM156.856 47.4054V28.9321C156.856 23.248 159.85 20 165.331 20C170.812 20 173.806 23.248 173.806 28.9321V47.4054C173.806 53.0894 170.812 56.3375 165.331 56.3375C159.85 56.3375 156.856 53.0894 156.856 47.4054ZM195.255 55.9315L193.276 37.0015H193.174L191.195 55.9315H183.531L179.573 20.406H185.003L187.947 48.4204H188.048L190.687 20.406H196.067L198.807 48.6234H198.909L201.751 20.406H206.623L202.664 55.9315H195.255ZM212.846 55.9315V20.406H221.677C227.259 20.406 230 23.5018 230 29.1859V47.1516C230 52.8357 227.259 55.9315 221.677 55.9315H212.846ZM221.575 25.4811H218.429V50.8564H221.575C223.352 50.8564 224.417 49.9429 224.417 47.4054V28.9321C224.417 26.3946 223.352 25.4811 221.575 25.4811Z" fill="#044E80"/>
<path d="M118.79 66.2576L122.396 88.7958H118.822L118.21 84.7067H113.864L113.252 88.7958H110L113.606 66.2576H118.79ZM115.989 70.2501L114.314 81.648H117.727L116.053 70.2501H115.989ZM133.782 88.7958L129.435 72.4717H129.371V88.7958H126.183V66.2576H130.627L134.2 79.7483H134.265V66.2576H137.42V88.7958H133.782ZM149.997 66.2576L153.603 88.7958H150.03L149.418 84.7067H145.071L144.459 88.7958H141.207L144.814 66.2576H149.997ZM147.196 70.2501L145.522 81.648H148.935L147.261 70.2501H147.196ZM157.423 88.7958V66.2576H160.965V85.5761H166.792V88.7958H157.423ZM171.835 88.7958V81.326L167.36 66.2576H171.063L173.735 76.5286H173.799L176.472 66.2576H179.852L175.377 81.326V88.7958H171.835ZM182.416 69.4773V66.2576H193.363V69.4773H189.661V88.7958H186.119V69.4773H182.416ZM197.086 88.7958V66.2576H200.628V88.7958H197.086ZM212.303 80.3923H215.652V83.3866C215.652 86.9928 213.849 89.0534 210.372 89.0534C206.894 89.0534 205.091 86.9928 205.091 83.3866V71.6668C205.091 68.0606 206.894 66 210.372 66C213.849 66 215.652 68.0606 215.652 71.6668V73.8562H212.303V71.4414C212.303 69.8315 211.595 69.2197 210.468 69.2197C209.341 69.2197 208.633 69.8315 208.633 71.4414V83.612C208.633 85.2219 209.341 85.8015 210.468 85.8015C211.595 85.8015 212.303 85.2219 212.303 83.612V80.3923ZM219.536 71.6668C219.536 68.0606 221.307 66 224.752 66C228.197 66 229.968 68.0606 229.968 71.6668V72.3751H226.619V71.4414C226.619 69.8315 225.975 69.2197 224.848 69.2197C223.722 69.2197 223.078 69.8315 223.078 71.4414C223.078 73.0834 223.786 74.307 226.104 76.3354C229.066 78.9434 230 80.8108 230 83.3866C230 86.9928 228.197 89.0534 224.72 89.0534C221.242 89.0534 219.439 86.9928 219.439 83.3866V82.0021H222.788V83.612C222.788 85.2219 223.496 85.8015 224.623 85.8015C225.75 85.8015 226.458 85.2219 226.458 83.612C226.458 81.97 225.75 80.7464 223.432 78.718C220.47 76.11 219.536 74.2426 219.536 71.6668Z" fill="#044E80"/>
</g>
<defs>
<clipPath id="clip0_3_2">
<rect width="230" height="107" fill="white"/>
</clipPath>
</defs>
</svg>
