<svg viewBox="0 0 230 107" height="107" width="230" style="width: 230px; height: 107px; position: absolute; top: 50%; left: 50%; transform: translate(-50%, -50%) scale(1.11087); z-index: 0; cursor: pointer;"><defs id="SvgjsDefs1033"></defs><g id="SvgjsG1034" featurekey="rootContainer" transform="matrix(1,0,0,1,0,0)" fill="#044e80"><rect y="0" height="1" width="1" opacity="0"></rect><rect y="102" width="230" height="5"></rect></g><g id="SvgjsG1035" featurekey="symbolFeature-0" transform="matrix(3,0,0,3,-3,5.98828125)" fill="#066db3"><g xmlns="http://www.w3.org/2000/svg" transform="translate(0,-1020.3622)"><path style="color:;font-style:normal;font-variant:normal;font-weight:normal;font-stretch:normal;font-size:medium;line-height:normal;font-family:sans-serif;text-indent:0;text-align:start;text-decoration:none;text-decoration-line:none;text-decoration-style:solid;text-decoration-color:;letter-spacing:normal;word-spacing:normal;text-transform:none;direction:ltr;block-progression:tb;writing-mode:lr-tb;baseline-shift:baseline;text-anchor:start;white-space:normal;clip-rule:nonzero;display:inline;overflow:visible;visibility:visible;opacity:1;isolation:auto;mix-blend-mode:normal;color-interpolation:sRGB;color-interpolation-filters:linearRGB;solid-color:;solid-opacity:1;fill:#066db3;fill-opacity:1;fill-rule:nonzero;stroke:none;stroke-width:0.99999994;stroke-linecap:round;stroke-linejoin:miter;stroke-miterlimit:4;stroke-dasharray:none;stroke-dashoffset:0;stroke-opacity:1;color-rendering:auto;image-rendering:auto;shape-rendering:auto;text-rendering:auto;enable-background:accumulate" d="m 12.931641,4.0039062 c -2.694119,0 -4.8487494,2.1443499 -5.0332035,4.8183594 C 7.3555206,8.9552025 6.8419337,9.1663587 6.3828125,9.4589844 5,10.257352 4.029049,12 3.9960938,13.832031 c 0.00107,2.8411 2.2870504,5.16211 5.1015624,5.16211 l 3.4023438,0 0,3.003906 c 0,0.5626 -0.437339,1 -1,1 l -0.572266,0 c -0.224623,-0.858369 -1.0022583,-1.5 -1.927734,-1.5 -1.0986456,0 -2,0.9013 -2,2 0,1.0986 0.9013544,2 2,2 0.924824,0 1.70248,-0.642581 1.927734,-1.5 l 0.572266,0 c 1.099357,0 2,-0.9007 2,-2 l 0,-9 -1,0 0,4.996094 -3.4023438,0 c -2.2674479,0 -4.1015626,-1.855263 -4.1015624,-4.164063 -3.034e-4,-1.500706 0.7875019,-2.82889 1.9882812,-3.5625 0.066957,-0.04103 0.1377001,-0.07611 0.2070312,-0.113281 0.1293538,-0.06904 0.2609399,-0.132363 0.3984376,-0.1875001 0.069422,-0.027984 0.139713,-0.053954 0.2109374,-0.078125 0.1668598,-0.056345 0.3392338,-0.101901 0.515625,-0.1367188 0.2537155,-0.049826 0.5124769,-0.083984 0.78125,-0.083984 1.1871258,0 2.2518008,0.5073182 3.0019528,1.3242192 0.448676,0.526286 1.222279,-0.183705 0.736329,-0.675782 -0.930107,-1.0128997 -2.264352,-1.6484372 -3.7382818,-1.6484372 -0.07415,0 -0.1453269,0.012439 -0.21875,0.015625 0.2378302,-2.0755169 1.9483208,-3.6796876 4.0527348,-3.6796876 1.967832,10e-4 3.656666,1.4128594 4.027343,3.3808594 0.06439,0.3451033 0.455039,0.5181609 0.753907,0.3339844 0.640751,-0.3954 1.373615,-0.6054688 2.121093,-0.6054688 2.267461,0 4.101563,1.8533094 4.101563,4.1621098 2.8e-5,0.276131 0.223869,0.499972 0.5,0.5 1.420345,0 2.568353,1.158975 2.568359,2.609375 -6e-6,1.4504 -1.148014,2.609375 -2.568359,2.609375 l -4.935547,0 0,-4.996094 -1,0 0,9 c 0,1.0993 0.900643,2 2,2 l 0.572266,0 c 0.225254,0.857419 1.00291,1.5 1.927734,1.5 1.098646,0 2,-0.9014 2,-2 0,-1.0987 -0.901354,-2 -2,-2 -0.925476,0 -1.703111,0.641631 -1.927734,1.5 l -0.572266,0 c -0.562661,0 -1,-0.4374 -1,-1 l 0,-3.003906 4.935547,0 c 1.968057,0 3.568351,-1.625775 3.568359,-3.609375 -7e-6,-1.8344 -1.388161,-3.303938 -3.15039,-3.523438 -0.219301,-2.6399999 -2.349613,-4.7480468 -5.019532,-4.7480468 -0.734222,0 -1.41615,0.2841969 -2.078125,0.5917969 -0.642007,-2.1526 -2.557157,-3.6999719 -4.824218,-3.7011719 z M 14.5,10.998047 l 0,9 1,0 0,-9 z m 2,0 0,9 1,0 0,-9 z m -2,10 0,1 1,0 0,-1 z m 2,0 0,1 1,0 0,-1 z m -7.5,1.5 c 0.5582086,0 1,0.4418 1,1 0,0.5582 -0.4417914,1 -1,1 -0.5582086,0 -1,-0.4418 -1,-1 0,-0.5582 0.4417914,-1 1,-1 z m 14,0 c 0.558209,0 1,0.4418 1,1 0,0.5582 -0.441791,1 -1,1 -0.558209,0 -1,-0.4418 -1,-1 0,-0.5582 0.441791,-1 1,-1 z m -22,0.5 0,1 1,0 0,-1 z m 2,0 0,1 1,0 0,-1 z m 2,0 0,1 1,0 0,-1 z m 9.5,0 0,1 1,0 0,-1 z m 2,0 0,1 1,0 0,-1 z m 9.5,0 0,1 1,0 0,-1 z m 2,0 0,1 1,0 0,-1 z m 2,0 0,1 1,0 0,-1 z m -15.5,2 0,1 1,0 0,-1 z m 2,0 0,1 1,0 0,-1 z m -2,2 0,1 1,0 0,-1 z m 2,0 0,1 1,0 0,-1 z" transform="translate(0,1020.3622)"></path></g></g><g id="SvgjsG1036" featurekey="nameFeature-0" transform="matrix(1.2687671566591028,0,0,1.2687671566591028,108.42672901614047,5.180802852996624)" fill="#044e80"><path d="M10.2 29.560000000000002 l4.16 0 l0 3.72 c0 4.48 -2.24 7.04 -6.56 7.04 s-6.56 -2.56 -6.56 -7.04 l0 -14.56 c0 -4.48 2.24 -7.04 6.56 -7.04 s6.56 2.56 6.56 7.04 l0 2.72 l-4.16 0 l0 -3 c0 -2 -0.88 -2.76 -2.28 -2.76 s-2.28 0.76 -2.28 2.76 l0 15.12 c0 2 0.88 2.72 2.28 2.72 s2.28 -0.72 2.28 -2.72 l0 -4 z M33.425 40 l-4.48 0 c-0.24 -0.72 -0.4 -1.16 -0.4 -3.44 l0 -4.4 c0 -2.6 -0.88 -3.56 -2.88 -3.56 l-1.52 0 l0 11.4 l-4.4 0 l0 -28 l6.64 0 c4.56 0 6.52 2.12 6.52 6.44 l0 2.2 c0 2.88 -0.92 4.72 -2.88 5.64 l0 0.08 c2.2 0.92 2.92 3 2.92 5.92 l0 4.32 c0 1.36 0.04 2.36 0.48 3.4 z M26.265 16 l-2.12 0 l0 8.6 l1.72 0 c1.64 0 2.64 -0.72 2.64 -2.96 l0 -2.76 c0 -2 -0.68 -2.88 -2.24 -2.88 z M42.57000000000001 18.44 l0 15.12 c0 2 0.88 2.76 2.28 2.76 s2.28 -0.76 2.28 -2.76 l0 -15.12 c0 -2 -0.88 -2.76 -2.28 -2.76 s-2.28 0.76 -2.28 2.76 z M38.17000000000001 33.28 l0 -14.56 c0 -4.48 2.36 -7.04 6.68 -7.04 s6.68 2.56 6.68 7.04 l0 14.56 c0 4.48 -2.36 7.04 -6.68 7.04 s-6.68 -2.56 -6.68 -7.04 z M68.435 40 l-1.56 -14.92 l-0.08 0 l-1.56 14.92 l-6.04 0 l-3.12 -28 l4.28 0 l2.32 22.08 l0.08 0 l2.08 -22.08 l4.24 0 l2.16 22.24 l0.08 0 l2.24 -22.24 l3.84 0 l-3.12 28 l-5.84 0 z M82.30000000000001 40 l0 -28 l6.96 0 c4.4 0 6.56 2.44 6.56 6.92 l0 14.16 c0 4.48 -2.16 6.92 -6.56 6.92 l-6.96 0 z M89.18000000000002 16 l-2.48 0 l0 20 l2.48 0 c1.4 0 2.24 -0.72 2.24 -2.72 l0 -14.56 c0 -2 -0.84 -2.72 -2.24 -2.72 z"></path></g><g id="SvgjsG1037" featurekey="nameFeature-1" transform="matrix(0.8049370191070598,0,0,0.8049370191070598,109.6458280493579,56.598337674125546)" fill="#044e80"><path d="M11.36 12 l4.48 28 l-4.44 0 l-0.76 -5.08 l-5.4 0 l-0.76 5.08 l-4.04 0 l4.48 -28 l6.44 0 z M7.88 16.96 l-2.08 14.16 l4.24 0 l-2.08 -14.16 l-0.08 0 z M29.985 40 l-5.4 -20.28 l-0.08 0 l0 20.28 l-3.96 0 l0 -28 l5.52 0 l4.44 16.76 l0.08 0 l0 -16.76 l3.92 0 l0 28 l-4.52 0 z M50.13 12 l4.48 28 l-4.44 0 l-0.76 -5.08 l-5.4 0 l-0.76 5.08 l-4.04 0 l4.48 -28 l6.44 0 z M46.650000000000006 16.96 l-2.08 14.16 l4.24 0 l-2.08 -14.16 l-0.08 0 z M59.355000000000004 40 l0 -28 l4.4 0 l0 24 l7.24 0 l0 4 l-11.64 0 z M77.26 40 l0 -9.28 l-5.56 -18.72 l4.6 0 l3.32 12.76 l0.08 0 l3.32 -12.76 l4.2 0 l-5.56 18.72 l0 9.28 l-4.4 0 z M90.405 16 l0 -4 l13.6 0 l0 4 l-4.6 0 l0 24 l-4.4 0 l0 -24 l-4.6 0 z M108.63 40 l0 -28 l4.4 0 l0 28 l-4.4 0 z M127.53500000000001 29.560000000000002 l4.16 0 l0 3.72 c0 4.48 -2.24 7.04 -6.56 7.04 s-6.56 -2.56 -6.56 -7.04 l0 -14.56 c0 -4.48 2.24 -7.04 6.56 -7.04 s6.56 2.56 6.56 7.04 l0 2.72 l-4.16 0 l0 -3 c0 -2 -0.88 -2.76 -2.28 -2.76 s-2.28 0.76 -2.28 2.76 l0 15.12 c0 2 0.88 2.72 2.28 2.72 s2.28 -0.72 2.28 -2.72 l0 -4 z M136.52 18.72 c0 -4.48 2.2 -7.04 6.48 -7.04 s6.48 2.56 6.48 7.04 l0 0.88 l-4.16 0 l0 -1.16 c0 -2 -0.8 -2.76 -2.2 -2.76 s-2.2 0.76 -2.2 2.76 c0 2.04 0.88 3.56 3.76 6.08 c3.68 3.24 4.84 5.56 4.84 8.76 c0 4.48 -2.24 7.04 -6.56 7.04 s-6.56 -2.56 -6.56 -7.04 l0 -1.72 l4.16 0 l0 2 c0 2 0.88 2.72 2.28 2.72 s2.28 -0.72 2.28 -2.72 c0 -2.04 -0.88 -3.56 -3.76 -6.08 c-3.68 -3.24 -4.84 -5.56 -4.84 -8.76 z"></path></g></svg>